# Blender v2.76 (sub 0) OBJ File: 'InimigoBombaUpgrade.blend'
# www.blender.org
mtllib BombEnemyProppeler.mtl
o proppeler_Sphere.000
v -0.041470 -1.169206 0.100118
v 0.041470 -0.795127 0.100118
v -0.029134 -1.204939 0.070336
v -0.041470 -1.088037 0.100118
v -0.100118 -0.795127 -0.041470
v -0.041470 -0.795127 -0.100118
v 0.041470 -0.795127 -0.100118
v 0.041470 -1.088037 -0.100118
v 0.100118 -0.795127 -0.041470
v 0.100118 -1.169206 -0.041470
v 0.100118 -0.795127 0.041470
v 0.100118 -1.088037 0.041470
v -0.070336 -1.204939 0.029134
v -0.029134 -1.204939 -0.070336
v 0.041470 -1.169206 -0.100118
v 0.029134 -1.204939 0.070336
v 0.100118 -1.169206 0.041470
v 0.041471 -1.169206 -2.451925
v 0.070336 -1.204939 -0.029134
v -0.504566 -1.088037 -1.725638
v -0.070336 -1.204939 -0.029134
v 0.029134 -1.204939 -0.070336
v 0.070336 -1.204939 0.029134
v -0.012348 -1.222321 0.029811
v -0.029811 -1.222321 0.012348
v -0.012348 -1.222321 -0.029811
v 0.012348 -1.222321 0.029811
v 0.029810 -1.222321 -0.012348
v -0.029811 -1.222321 -0.012348
v 0.012348 -1.222321 -0.029811
v 0.029810 -1.222321 0.012348
v -0.041470 -1.169206 -0.100118
v -0.100118 -1.088037 -0.041470
v -0.100118 -1.169206 -0.041470
v -2.451926 -1.169206 -0.041471
v -1.725638 -1.088037 0.504566
v -0.100118 -1.169206 0.041470
v 0.041470 -1.169206 0.100118
v -0.041470 -1.169206 2.451926
v 0.504566 -1.088037 1.725638
v 2.451926 -1.169206 0.041469
v 1.725637 -1.088037 -0.504566
v -0.100118 -0.795127 0.041470
v -0.100118 -1.088037 0.041470
v -0.041470 -0.795127 0.100118
v 0.041470 -1.088037 0.100118
v -0.041470 -1.088037 -0.100118
v 0.100118 -1.088037 -0.041470
v -1.704448 -1.169206 -1.763097
v -1.576992 -1.088037 -0.863429
v -1.763097 -1.169207 1.704449
v -0.863428 -1.088037 1.576992
v 1.704450 -1.169206 1.763097
v 1.576992 -1.088037 0.863428
v 1.763097 -1.169206 -1.704450
v 0.863428 -1.088036 -1.576992
vt 0.933533 0.436879
vt 0.934565 0.434326
vt 0.939441 0.434326
vt 0.938440 0.446901
vt 0.938440 0.439943
vt 0.945381 0.439943
vt 0.911870 0.443838
vt 0.916777 0.436879
vt 0.916777 0.468949
vt 0.938036 0.425741
vt 0.935970 0.425741
vt 0.934565 0.422266
vt 0.945381 0.472012
vt 0.938440 0.472012
vt 0.923718 0.419713
vt 0.928625 0.431852
vt 0.911870 0.424741
vt 0.194867 0.416204
vt 0.194867 0.458796
vt 0.194130 0.416204
vt 0.939473 0.436879
vt 0.944348 0.436879
vt 0.938036 0.430852
vt 0.935970 0.430852
vt 0.934508 0.427238
vt 0.939497 0.427238
vt 0.939441 0.422266
vt 0.939497 0.429355
vt 0.934508 0.429355
vt 0.931117 0.425799
vt 0.942889 0.430794
vt 0.196340 0.416204
vt 0.196340 0.458796
vt 0.195604 0.416204
vt 0.942889 0.425799
vt 0.945381 0.424741
vt 0.953353 0.419713
vt 0.958229 0.419713
vt 0.959261 0.422777
vt 0.959261 0.426672
vt 0.964169 0.419713
vt 0.964169 0.451783
vt 0.952321 0.454846
vt 0.945381 0.454846
vt 0.945381 0.429735
vt 0.931117 0.430794
vt 0.916777 0.443838
vt 0.921685 0.436879
vt 0.921685 0.468949
vt 0.938440 0.468949
vt 0.931500 0.468949
vt 0.931500 0.443838
vt 0.946413 0.419713
vt 0.951289 0.419713
vt 0.952321 0.422777
vt 0.959261 0.454846
vt 0.952321 0.429735
vt 0.179264 0.416204
vt 0.179264 0.458796
vt 0.174308 0.445643
vt 0.945381 0.422777
vt 0.154485 0.429357
vt 0.159441 0.416204
vt 0.159441 0.458796
vt 0.921685 0.443838
vt 0.926593 0.436879
vt 0.926593 0.468949
vt 0.933533 0.419713
vt 0.929583 0.437937
vt 0.929583 0.442932
vt 0.926593 0.443990
vt 0.164397 0.416204
vt 0.164397 0.458796
vt 0.159441 0.445643
vt 0.179264 0.429357
vt 0.184219 0.416204
vt 0.184219 0.458796
vt 0.174308 0.416204
vt 0.174308 0.458796
vt 0.169352 0.445643
vt 0.197077 0.416204
vt 0.197077 0.458796
vt 0.164397 0.429357
vt 0.169352 0.416204
vt 0.169352 0.458796
vt 0.189175 0.416204
vt 0.189175 0.458796
vt 0.184219 0.445643
vt 0.195604 0.458796
vt 0.189175 0.429357
vt 0.194130 0.458796
vt 0.940473 0.436879
vt 0.911870 0.468949
vt 0.911870 0.431852
vt 0.916777 0.419713
vt 0.928625 0.424741
vt 0.923718 0.436879
vt 0.945381 0.431852
vt 0.959261 0.451783
vt 0.938440 0.436879
vt 0.178511 0.416204
vt 0.158688 0.458796
vt 0.940473 0.419713
vt 0.163644 0.416204
vt 0.183466 0.458796
vt 0.173555 0.416204
vt 0.168600 0.458796
vt 0.188422 0.416204
vt 0.193378 0.458796
vn 0.543200 -0.640200 -0.543200
vn 1.000000 -0.000000 0.000000
vn 0.707100 -0.000000 -0.707100
vn -0.278700 -0.919000 0.278700
vn 0.000000 1.000000 0.000000
vn 0.768200 -0.640200 0.000000
vn 0.000000 -1.000000 0.000000
vn -0.394200 -0.919000 0.000000
vn 0.000000 -0.919000 -0.394200
vn 0.394200 -0.919000 0.000000
vn 0.278700 -0.919000 0.278700
vn 0.000000 -0.919000 0.394200
vn -0.278700 -0.919000 -0.278700
vn 0.278700 -0.919000 -0.278700
vn 0.000000 -0.000000 -1.000000
vn -0.543200 -0.640200 -0.543200
vn 0.000000 -0.640200 0.768200
vn 0.707100 -0.000000 0.707100
vn -1.000000 0.000000 -0.000000
vn 0.543200 -0.640200 0.543200
vn -0.707100 0.000000 -0.707100
vn -0.768200 -0.640200 0.000000
vn 0.000000 -0.000000 1.000000
vn 0.102100 0.994200 -0.034300
vn -0.147000 -0.989100 -0.000000
vn -0.707100 -0.000000 0.707100
vn -0.543200 -0.640200 0.543200
vn 0.000000 -0.640200 -0.768200
vn -0.034300 0.994200 -0.102100
vn 0.000000 -0.989100 0.147000
vn -0.102100 0.994200 0.034300
vn 0.147000 -0.989100 0.000000
vn 0.034300 0.994200 0.102100
vn -0.000000 -0.989100 -0.147000
vn 0.048000 0.994200 -0.096500
vn -0.104000 -0.989100 0.104000
vn -0.096500 0.994200 -0.048000
vn 0.104000 -0.989100 0.104000
vn -0.048000 0.994200 0.096500
vn 0.104000 -0.989100 -0.104000
vn 0.096500 0.994200 0.048000
vn -0.104000 -0.989100 -0.104000
vn -0.680900 0.695800 0.228700
vn 0.000000 -0.998800 -0.049900
vn 0.228700 0.695800 0.680900
vn -0.049900 -0.998800 0.000000
vn 0.680900 0.695800 -0.228700
vn 0.000000 -0.998800 0.049900
vn -0.228700 0.695800 -0.680900
vn 0.049900 -0.998800 0.000000
vn -0.319700 0.695800 0.643200
vn -0.035300 -0.998800 -0.035300
vn 0.643200 0.695800 0.319700
vn -0.035300 -0.998800 0.035300
vn 0.319700 0.695800 -0.643200
vn 0.035300 -0.998800 0.035300
vn -0.643200 0.695800 -0.319700
vn 0.035300 -0.998800 -0.035300
usemtl None
s off
f 10/1/1 19/2/1 22/3/1
f 12/4/2 17/5/2 10/6/2
f 48/7/3 15/8/3 7/9/3
f 25/10/4 24/11/4 3/12/4
f 9/13/2 11/14/2 12/4/2
f 7/15/5 5/16/5 11/17/5
f 15/18/2 18/19/2 8/20/2
f 23/21/6 19/22/6 10/6/6
f 30/23/7 28/24/7 27/25/7
f 29/26/8 25/10/8 13/27/8
f 22/3/9 30/23/9 26/28/9
f 31/29/10 28/24/10 19/2/10
f 16/30/11 27/25/11 31/29/11
f 24/11/12 27/25/12 16/30/12
f 14/31/13 26/28/13 29/26/13
f 28/24/14 30/23/14 22/3/14
f 34/32/15 35/33/15 33/34/15
f 14/31/16 21/35/16 34/36/16
f 3/37/17 16/38/17 38/39/17
f 46/40/18 17/41/18 11/42/18
f 43/43/19 5/44/19 33/45/19
f 16/30/20 23/46/20 17/16/20
f 47/47/21 34/48/21 5/49/21
f 6/50/15 7/51/15 8/52/15
f 21/53/22 13/54/22 37/55/22
f 2/56/23 45/43/23 4/57/23
f 8/58/24 18/59/24 20/60/24
f 33/45/19 34/61/19 37/55/19
f 20/62/25 18/63/25 15/64/25
f 44/65/26 1/66/26 45/67/26
f 4/57/23 1/55/23 38/39/23
f 13/27/27 3/12/27 1/68/27
f 22/69/28 14/70/28 32/71/28
f 33/72/29 35/73/29 36/74/29
f 36/75/30 35/76/30 34/77/30
f 4/78/31 39/79/31 40/80/31
f 1/81/19 39/82/19 4/32/19
f 40/83/32 39/84/32 1/85/32
f 12/86/33 41/87/33 42/88/33
f 17/34/23 41/89/23 12/18/23
f 42/90/34 41/20/34 17/91/34
f 32/18/3 49/19/3 47/20/3
f 37/32/21 51/33/21 44/34/21
f 47/58/35 49/59/35 50/60/35
f 50/62/36 49/63/36 32/64/36
f 44/72/37 51/73/37 52/74/37
f 52/75/38 51/76/38 37/77/38
f 46/78/39 53/79/39 54/80/39
f 38/81/26 53/82/26 46/32/26
f 54/83/40 53/84/40 38/85/40
f 48/86/41 55/87/41 56/88/41
f 10/34/18 55/89/18 48/18/18
f 56/90/42 55/20/42 10/91/42
f 15/92/1 10/1/1 22/3/1
f 9/93/3 48/7/3 7/9/3
f 13/27/4 25/10/4 3/12/4
f 10/6/2 9/13/2 12/4/2
f 45/8/5 2/94/5 11/17/5
f 11/17/5 9/95/5 7/15/5
f 7/15/5 6/96/5 5/16/5
f 5/16/5 43/97/5 45/8/5
f 45/8/5 11/17/5 5/16/5
f 17/5/6 23/21/6 10/6/6
f 27/25/7 24/11/7 25/10/7
f 25/10/7 29/26/7 26/28/7
f 26/28/7 30/23/7 27/25/7
f 28/24/7 31/29/7 27/25/7
f 27/25/7 25/10/7 26/28/7
f 21/35/8 29/26/8 13/27/8
f 14/31/9 22/3/9 26/28/9
f 23/46/10 31/29/10 19/2/10
f 23/46/11 16/30/11 31/29/11
f 3/12/12 24/11/12 16/30/12
f 21/35/13 14/31/13 29/26/13
f 19/2/14 28/24/14 22/3/14
f 32/98/16 14/31/16 34/36/16
f 1/55/17 3/37/17 38/39/17
f 2/99/18 46/40/18 11/42/18
f 37/55/19 43/43/19 33/45/19
f 38/96/20 16/30/20 17/16/20
f 6/9/21 47/47/21 5/49/21
f 32/100/15 6/50/15 8/52/15
f 34/61/22 21/53/22 37/55/22
f 38/39/23 2/56/23 4/57/23
f 32/101/43 8/58/43 20/60/43
f 32/102/44 20/62/44 15/64/44
f 43/49/26 44/65/26 45/67/26
f 37/103/27 13/27/27 1/68/27
f 15/66/28 22/69/28 32/71/28
f 37/104/45 33/72/45 36/74/45
f 37/105/46 36/75/46 34/77/46
f 38/106/47 4/78/47 40/80/47
f 38/107/48 40/83/48 1/85/48
f 10/108/49 12/86/49 42/88/49
f 10/109/50 42/90/50 17/91/50
f 34/101/51 47/58/51 50/60/51
f 34/102/52 50/62/52 32/64/52
f 1/104/53 44/72/53 52/74/53
f 1/105/54 52/75/54 37/77/54
f 17/106/55 46/78/55 54/80/55
f 17/107/56 54/83/56 38/85/56
f 15/108/57 48/86/57 56/88/57
f 15/109/58 56/90/58 10/91/58
